<?xml version="1.0" encoding="UTF-8" standalone="no" ?>
<!DOCTYPE svg PUBLIC "-//W3C//DTD SVG 1.1//EN" "http://www.w3.org/Graphics/SVG/1.1/DTD/svg11.dtd">
<svg xmlns="http://www.w3.org/2000/svg" xmlns:xlink="http://www.w3.org/1999/xlink" version="1.1" width="1080" height="1080" viewBox="0 0 1080 1080" xml:space="preserve">
<desc>Created with Fabric.js 5.2.4</desc>
<defs>
</defs>
<g transform="matrix(1 0 0 1 540 540)" id="3df860c0-7c1b-4d63-a65d-b175357053af"  >
<rect style="stroke: none; stroke-width: 1; stroke-dasharray: none; stroke-linecap: butt; stroke-dashoffset: 0; stroke-linejoin: miter; stroke-miterlimit: 4; fill: rgb(255,255,255); fill-rule: nonzero; opacity: 1; visibility: hidden;" vector-effect="non-scaling-stroke"  x="-540" y="-540" rx="0" ry="0" width="1080" height="1080" />
</g>
<g transform="matrix(1 0 0 1 540 540)" id="8d27c8cf-363e-49c0-99ba-cbb9f5cb438f"  >
</g>
<g transform="matrix(6.59 0 0 6.59 540 540)"  >
<g style="" vector-effect="non-scaling-stroke"   >
		<g transform="matrix(3 0 0 3 0 0)"  >
<path style="stroke: rgb(0,207,142); stroke-width: 0; stroke-dasharray: none; stroke-linecap: butt; stroke-dashoffset: 0; stroke-linejoin: miter; stroke-miterlimit: 2; fill: rgb(0,207,142); fill-rule: nonzero; opacity: 1;" vector-effect="non-scaling-stroke"  transform=" translate(-100, -99.99)" d="M 102.84473 73.49287 C 107.66895 73.49287 114.4375 74.42939 119.91015999999999 78.89424 C 121.92578999999999 80.54951 122.07032 83.43037 120.55761999999999 85.59053 C 119.11816999999999 87.60616 116.23730999999998 87.31807 113.93359999999998 86.09444 C 110.90918999999998 84.58272000000001 107.38086999999999 83.07003 102.84472999999998 83.07003 C 93.48339999999999 83.07003 85.92284999999998 90.63058000000001 85.92284999999998 99.99191 C 85.92284999999998 109.35226 93.48339999999999 116.91281000000001 102.84472999999998 116.91281000000001 C 106.58886999999999 116.91281000000001 110.98144999999998 115.76144000000001 114.14941999999999 113.96066 L 114.14941999999999 104.02414 C 114.14941999999999 101.43137 116.23731 99.27121 118.90136999999999 99.27121 C 121.56640999999999 99.27121 123.65429999999999 101.43137 123.65429999999999 104.02414 L 123.65429999999999 115.32883000000001 C 123.65429999999999 116.62473000000001 123.65429999999999 117.63352 123.15038999999999 118.71360000000001 C 122.71776999999999 119.57688000000002 121.99804999999999 120.22532000000001 121.06151999999999 120.87376000000002 C 116.30957 124.25755000000002 109.10936999999998 126.48997000000001 102.84472 126.48997000000001 C 88.22753 126.48997000000001 76.3457 114.60911000000002 76.3457 99.99192000000002 C 76.3457 85.30244 88.22754 73.49287 102.84473 73.49287 z" stroke-linecap="round" />
</g>
		<g transform="matrix(3 0 0 3 13.83 12.21)"  >
<path style="stroke: rgb(174,233,210); stroke-width: 0; stroke-dasharray: none; stroke-linecap: butt; stroke-dashoffset: 0; stroke-linejoin: miter; stroke-miterlimit: 2; fill: rgb(174,233,210); fill-rule: nonzero; opacity: 1;" vector-effect="non-scaling-stroke"  transform=" translate(-104.61, -104.06)" d="M 104.64453 99.27119 C 107.23633000000001 99.27119 109.39648 101.43135000000001 109.39648 104.02412000000001 C 109.39648 106.68818000000002 107.23631999999999 108.84834000000001 104.64453 108.84834000000001 C 101.98047 108.84834000000001 99.82031 106.68818 99.82031 104.02412000000001 C 99.82031 101.43135 101.98047 99.27119 104.64453 99.27119 z" stroke-linecap="round" />
</g>
</g>
</g>
</svg>